<?xml version="1.0" encoding="utf-8"?>
<!-- Generator: Adobe Illustrator 21.0.2, SVG Export Plug-In . SVG Version: 6.00 Build 0)  -->
<svg version="1.1" id="Layer_1" xmlns="http://www.w3.org/2000/svg" xmlns:xlink="http://www.w3.org/1999/xlink" x="0px" y="0px"
	 viewBox="0 0 1184.4 305.4" style="enable-background:new 0 0 1184.4 305.4;" xml:space="preserve">
<style type="text/css">
	.st0{fill:#FFFFFF;}
</style>
<g>
	<path class="st0" d="M408.8,96.1c-2.5,11.1-7.4,19.6-14.5,25.5c-7.3,5.9-16,8.8-26.1,8.8c-9.1-0.2-16.7-2.5-22.7-6.9
		c-6.2-4.2-10.7-9.1-13.5-14.6c-0.8-1.8-1.6-3.5-2.3-5.2c-0.6-1.7-1.2-3.8-1.6-6.4c-0.8-4.8-1.2-14-1.2-27.7
		c0-13.9,0.4-23.1,1.2-27.8c0.9-4.7,2.1-8.5,3.9-11.4c2.8-5.5,7.3-10.4,13.5-14.7c6.1-4.4,13.7-6.6,22.8-6.7
		c11.2,0.1,20.2,3.5,27.3,10.2c7,6.8,11.5,15.1,13.3,25.1h-18.6c-1.4-4.8-4-8.9-7.8-12.3c-3.9-3.2-8.7-4.9-14.3-5
		c-4.1,0.1-7.7,1-10.6,2.5c-3,1.6-5.4,3.7-7.3,6.2c-2.3,2.6-3.8,5.9-4.5,9.9c-0.9,4.3-1.3,12.3-1.3,24c0,11.8,0.4,19.7,1.3,23.9
		c0.7,4.2,2.3,7.5,4.5,10.1c1.9,2.5,4.3,4.5,7.3,6c3,1.8,6.5,2.7,10.6,2.7c9.8,0,17.2-5.4,22.1-16.3H408.8z"/>
	<path class="st0" d="M483.3,102.7h-43.8l-8.9,26.7H412l42-119.3h14.7l42,119.3h-18.5L483.3,102.7z M478.3,86.7l-16.7-52.2h-0.3
		l-16.7,52.2H478.3z"/>
	<path class="st0" d="M526.3,10.1h16.5l52.3,84.8h0.3V10.1H613v119.3h-16.6l-52.3-84.8h-0.3v84.8h-17.5V10.1z"/>
	<path class="st0" d="M700.2,102.7h-43.8l-8.9,26.7h-18.5l42-119.3h14.7l42,119.3h-18.5L700.2,102.7z M695.2,86.7l-16.7-52.2h-0.3
		l-16.7,52.2H695.2z"/>
	<path class="st0" d="M743.2,10.1h40.5c15.6,0.1,27.4,6.8,35.2,20.1c2.8,4.5,4.6,9.2,5.3,14.1c0.6,4.9,0.9,13.4,0.9,25.5
		c0,12.8-0.4,21.8-1.3,26.8c-0.4,2.6-1.1,4.9-1.9,6.9c-0.9,2-2,4-3.3,6.1c-3.4,5.6-8.1,10.3-14.1,13.9c-6,3.9-13.3,5.9-22,5.9h-39.3
		V10.1z M760.7,112.4h21c9.8,0,17-3.5,21.4-10.4c2-2.6,3.2-5.8,3.7-9.8c0.5-3.9,0.7-11.2,0.7-21.8c0-10.4-0.2-17.8-0.7-22.3
		c-0.6-4.5-2.1-8.1-4.5-10.9c-4.9-6.9-11.7-10.3-20.6-10.1h-21V112.4z"/>
	<path class="st0" d="M848.8,10.1h17.5v119.3h-17.5V10.1z"/>
	<path class="st0" d="M951.2,102.7h-43.8l-8.9,26.7H880l42-119.3h14.7l42,119.3h-18.5L951.2,102.7z M946.2,86.7l-16.7-52.2h-0.3
		l-16.7,52.2H946.2z"/>
	<path class="st0" d="M994.2,10.1h16.5l52.3,84.8h0.3V10.1h17.5v119.3h-16.6l-52.3-84.8h-0.3v84.8h-17.5V10.1z"/>
	<path class="st0" d="M392.4,268.1c9.2,7.8,20.2,11.8,32.8,11.9c15-0.2,22.6-5.8,22.9-16.6c0.1-8.9-4.9-14.3-15.1-16.1
		c-4.7-0.7-9.8-1.4-15.3-2.2c-9.9-1.7-17.5-5.5-22.7-11.4c-5.3-6.1-8-13.4-8-22.1c0-10.4,3.4-18.8,10.1-25.2
		c6.5-6.3,15.7-9.6,27.6-9.7c14.4,0.3,26.8,4.4,37.5,12.3l-9.8,14.9c-8.7-5.9-18.2-9-28.6-9.2c-5.4,0-9.9,1.4-13.5,4.2
		c-3.8,2.9-5.7,7.2-5.8,12.9c0,3.4,1.3,6.6,3.9,9.3c2.6,2.8,6.7,4.8,12.4,5.9c3.2,0.5,7.5,1.2,13,1.9c10.8,1.5,18.8,5.5,24,12
		c5.1,6.4,7.7,13.8,7.7,22.3c-0.6,22.8-14.1,34.4-40.6,34.7c-17.1,0-31.8-5.4-44.1-16.3L392.4,268.1z"/>
	<path class="st0" d="M506.8,193.7h-31.7v-16H556v16h-31.7V297h-17.5V193.7z"/>
	<path class="st0" d="M617.8,270.3h-43.8l-8.9,26.7h-18.5l42-119.3h14.7l42,119.3h-18.5L617.8,270.3z M612.8,254.3l-16.7-52.2h-0.3
		L579,254.3H612.8z"/>
	<path class="st0" d="M660.8,177.7h45.2c9.6,0,17.5,2.6,23.6,7.9c7.3,5.9,11.1,14.4,11.5,25.5c-0.2,16.2-7.6,27.2-22.3,33.1l26.8,53
		h-20.8l-23.9-51h-22.4v51h-17.5V177.7z M678.3,230h26.5c6.6-0.1,11.5-2.1,14.8-5.9c3.2-3.6,4.8-7.9,4.8-13.1
		c-0.1-6.2-2-10.7-5.8-13.5c-3-2.5-7.3-3.7-12.9-3.7h-27.5V230z"/>
	<path class="st0" d="M779.6,193.7h-31.7v-16h80.9v16h-31.7V297h-17.5V193.7z"/>
	<path class="st0" d="M841.7,177.7h17.5v77c0.1,8.1,2.4,14.3,6.8,18.6c4.3,4.5,9.9,6.7,16.8,6.7c6.8,0,12.5-2.2,16.9-6.7
		c4.3-4.3,6.6-10.5,6.7-18.6v-77h17.5v78.9c-0.2,12.6-4.2,22.5-11.8,29.9c-7.7,7.6-17.5,11.4-29.3,11.5c-11.6-0.1-21.3-3.9-29-11.5
		c-7.9-7.4-12-17.3-12.1-29.8V177.7z"/>
	<path class="st0" d="M949.4,177.7h41.9c4.5,0,8.9,0.4,13.2,1.3c4.2,1.1,8.5,3.5,12.9,7c3.6,2.7,6.6,6.5,8.9,11.5
		c2.4,4.8,3.6,10.5,3.6,17c0,8.8-3,16.9-9,24.1c-6.2,7.6-15.2,11.6-27.1,11.8h-26.7V297h-17.5V177.7z M966.9,233.4h26
		c6.5-0.1,11.4-2.2,14.7-6.3c3.1-3.9,4.7-8.3,4.7-13.2c0-4-0.6-7.4-1.9-10.1c-1.3-2.5-3.2-4.4-5.6-5.8c-3.6-2.4-7.8-3.5-12.6-3.4
		h-25.3V233.4z"/>
</g>
<g>
	<path class="st0" d="M1174.3,267v16l9.7,3.2v6.8l-43.5-15.3v-5.3L1184,257v6.7L1174.3,267z M1168.5,268.8l-19,6.1v0.1l19,6.1V268.8
		z"/>
	<path class="st0" d="M1140.6,248.2v-6.7l30.9-6.6v-0.1l-30.9-8.2v-4.6l30.9-8.1v-0.1l-30.9-6.6v-6.7l43.5,10.5v5.3l-31.4,8v0.1
		l31.4,8.1v5.3L1140.6,248.2z"/>
	<path class="st0" d="M1174.3,165.1v16l9.7,3.2v6.8l-43.5-15.3v-5.3l43.5-15.3v6.7L1174.3,165.1z M1168.5,166.9l-19,6.1v0.1l19,6.1
		V166.9z"/>
	<path class="st0" d="M1140.6,140.2v-16.5c0-3.5,1-6.4,2.9-8.6c2.2-2.7,5.3-4.1,9.3-4.2c5.9,0.1,9.9,2.8,12,8.1l19.3-9.7v7.6
		l-18.6,8.7v8.2h18.6v6.4H1140.6z M1159.6,133.8v-9.7c0-2.4-0.8-4.2-2.1-5.4c-1.3-1.2-2.9-1.8-4.8-1.8c-2.3,0-3.9,0.7-4.9,2.1
		c-0.9,1.1-1.3,2.6-1.3,4.7v10H1159.6z"/>
	<path class="st0" d="M1140.6,93.7V79c0-5.7,2.5-10,7.3-12.8c1.6-1,3.3-1.7,5.1-1.9c1.8-0.2,4.9-0.3,9.3-0.3c4.7,0,7.9,0.2,9.8,0.5
		c0.9,0.2,1.8,0.4,2.5,0.7c0.7,0.3,1.5,0.7,2.2,1.2c2.1,1.2,3.7,2.9,5.1,5.1c1.4,2.2,2.1,4.8,2.1,8v14.3H1140.6z M1177.8,87.3v-7.6
		c0-3.6-1.3-6.2-3.8-7.8c-0.9-0.7-2.1-1.2-3.6-1.4c-1.4-0.2-4.1-0.3-7.9-0.3c-3.8,0-6.5,0.1-8.1,0.3c-1.6,0.2-3,0.8-4,1.6
		c-2.5,1.8-3.8,4.3-3.7,7.5v7.6H1177.8z"/>
	<path class="st0" d="M1173.5,45.5c2.8-3.4,4.3-7.3,4.3-12c-0.1-5.5-2.1-8.2-6.1-8.3c-3.2,0-5.2,1.8-5.8,5.5
		c-0.2,1.7-0.5,3.6-0.8,5.6c-0.6,3.6-2,6.4-4.1,8.3c-2.2,1.9-4.9,2.9-8.1,2.9c-3.8,0-6.9-1.2-9.2-3.7c-2.3-2.4-3.5-5.7-3.5-10.1
		c0.1-5.2,1.6-9.8,4.5-13.7l5.4,3.6c-2.1,3.2-3.3,6.6-3.3,10.4c0,2,0.5,3.6,1.5,4.9c1,1.4,2.6,2.1,4.7,2.1c1.3,0,2.4-0.5,3.4-1.4
		c1-0.9,1.8-2.5,2.1-4.5c0.2-1.2,0.4-2.7,0.7-4.7c0.6-3.9,2-6.9,4.4-8.8c2.3-1.9,5-2.8,8.1-2.8c8.3,0.2,12.5,5.1,12.6,14.8
		c0,6.2-2,11.6-5.9,16.1L1173.5,45.5z"/>
</g>
<polygon class="st0" points="153.8,216.7 153.8,204.8 262.3,142.2 285.3,129 286.8,119.1 231.5,87.2 197.8,106.6 197.8,32 
	177.1,19.8 177.1,43.8 177.1,142.5 231.5,111.1 253.1,123.6 153.8,180.8 153.8,30.1 153.8,10.1 153.8,6.1 143.4,0 89,32 89,106.6 
	55.3,87.2 34.6,99.1 55.3,111.1 109.7,142.5 109.7,43.8 133.1,30.1 133.1,180.8 33.7,123.6 33.7,123.6 13,111.6 0,119.1 9.6,181.9 
	52.8,206.8 52.8,230.7 109.7,263.4 109.7,239.5 73.5,218.7 73.5,194.9 28.6,168.9 24.5,142.2 133.1,204.8 133.1,216.7 133.1,245.9 
	133.1,252.8 133.1,276.7 133.1,282 133.1,305.4 153.8,305.4 153.8,276.7 234.1,230.7 234.1,206.8 277.2,181.9 281.3,155.1 
	258.3,168.9 213.4,194.9 213.4,218.7 153.8,252.8 153.8,252.8 "/>
</svg>
