<?xml version="1.0" encoding="utf-8"?>
<!-- Generator: Adobe Illustrator 21.0.2, SVG Export Plug-In . SVG Version: 6.00 Build 0)  -->
<svg version="1.1" id="Layer_1" xmlns="http://www.w3.org/2000/svg" xmlns:xlink="http://www.w3.org/1999/xlink" x="0px" y="0px"
	 viewBox="0 0 530.2 156.5" style="enable-background:new 0 0 530.2 156.5;" xml:space="preserve">
<style type="text/css">
	.st0{fill:#FFFFFF;}
</style>
<g id="Layer_2">
	<g id="Layer_1-2">
		<path id="_7TH-ANNUAL" class="st0" d="M137.4,4.9h2.5V2.5h4.6l-5.8,14.7h2.8l5.8-14.7V0h-9.8L137.4,4.9z M153.9,17.2h2.6V2.3h4.7
			V0h-12v2.3h4.7L153.9,17.2z M173.9,17.2h2.6V0H174v7.4h-6.8V0h-2.6v17.2h2.6V9.7h6.8L173.9,17.2z M192,11h5l-2.5-7.5l0,0L192,11z
			 M199,17.2l-1.3-3.8h-6.5l-1.3,3.8h-2.8L193.4,0h2.2l6.2,17.2H199z M205,17.2h2.6V5l0,0l7.8,12.2h2.6V0h-2.6v12.2l0,0L207.6,0
			h-2.4L205,17.2z M223,17.2h2.6V5l0,0l7.8,12.2h2.5V0h-2.6v12.2l0,0L225.5,0h-2.4L223,17.2z M240.7,11.4c-0.1,1.6,0.6,3.2,1.8,4.3
			c2.5,2.2,6.2,2.2,8.7,0c1.2-1.1,1.8-2.7,1.8-4.3V0h-2.6v11.1c0,1-0.3,2-1,2.7c-0.7,0.7-1.6,1-2.5,1c-0.9,0-1.8-0.3-2.5-1
			c-0.7-0.7-1.1-1.7-1-2.7V0h-2.6L240.7,11.4z M260.1,11h5l-2.5-7.5l0,0L260.1,11z M267.2,17.1l-1.3-3.8h-6.5l-1.3,3.8h-2.8L261.6,0
			h2.2l6.3,17.2L267.2,17.1z M273.2,17.1h11v-2.4h-8.3V0h-2.6L273.2,17.1z"/>
		<polygon id="Fill-1" class="st0" points="60.3,28.9 37.5,42.3 37.5,73.4 23.3,65.3 9.1,73.4 17.8,78.4 23.3,75.3 46.2,88.4 
			46.2,47.2 56,41.5 56,104.4 6.9,76.4 5.4,75.5 0,78.7 4,104.9 22.2,115.3 22.2,125.3 51.6,142 51.6,132 30.9,120.2 30.9,110.3 
			12,99.4 10.3,88.3 56,114.4 56,134.5 56,134.5 56,144.5 56,144.5 56,156.5 64.7,156.5 64.7,144.5 98.5,125.3 98.5,115.3 
			116.6,104.9 119.3,87.4 109.6,92.9 108.6,99.4 89.8,110.3 89.8,120.2 64.7,134.5 64.7,119.4 64.7,114.4 110.3,88.3 120,82.8 
			120.7,78.7 97.4,65.3 83.2,73.4 83.2,42.3 69,34 69,44 74.5,47.2 74.5,88.4 97.4,75.3 106.5,80.5 64.7,104.4 64.7,41.5 64.7,33.1 
			64.7,31.5 		"/>
		<path id="Fill-2" class="st0" d="M523,144.3l-7.5,2.6l0,0l7.5,2.6V144.3z M525.3,143.5v6.9l3.8,1.4v2.9l-17.2-6.6v-2.3l17.2-6.6
			v2.9L525.3,143.5z"/>
		<polygon id="Fill-3" class="st0" points="511.9,134.1 511.9,131.4 524.2,128.8 524.2,128.7 511.9,125.5 511.9,123.7 524.2,120.4 
			524.2,120.4 511.9,117.8 511.9,115.1 529.2,119.2 529.2,121.4 516.7,124.6 516.7,124.6 529.2,127.8 529.2,129.9 		"/>
		<path id="Fill-4" class="st0" d="M523,103l-7.5,2.6v0.1l7.5,2.6V103z M525.3,102.2v6.9l3.8,1.4v2.9l-17.2-6.6v-2.3l17.2-6.6v2.9
			L525.3,102.2z"/>
		<path id="Fill-5" class="st0" d="M519.9,87.7v-4c0.1-1.5-1-2.9-2.6-3c-0.1,0-0.2,0-0.3,0c-0.8-0.1-1.6,0.3-2.1,0.9
			c-0.4,0.6-0.6,1.3-0.6,2v4.2L519.9,87.7z M512,90.3v-6.9c-0.1-1.3,0.4-2.6,1.2-3.6c1-1.1,2.4-1.8,3.9-1.7c2.2-0.1,4.3,1.3,5,3.4
			l8-4.1v3.2l-7.7,3.7v3.4h7.7v2.7H512z"/>
		<path id="Fill-7" class="st0" d="M527.5,68.2V65c0.1-1.3-0.5-2.5-1.6-3.3c-0.4-0.3-1-0.5-1.5-0.6c-0.6-0.1-1.7-0.1-3.3-0.1
			s-2.7,0-3.4,0.1c-0.6,0.1-1.2,0.3-1.7,0.7c-1,0.7-1.6,1.9-1.5,3.2v3.2L527.5,68.2z M511.9,70.9v-6.2c-0.1-2.2,1.1-4.3,3.1-5.4
			c0.6-0.4,1.4-0.7,2.1-0.8c1.3-0.1,2.6-0.2,3.9-0.1c1.4,0,2.7,0,4.1,0.2c0.3,0.1,0.7,0.2,1,0.3c0.3,0.1,0.6,0.3,0.9,0.5
			c0.9,0.5,1.6,1.3,2.1,2.2c0.6,1,0.9,2.2,0.9,3.4v6L511.9,70.9z"/>
		<path id="Fill-9" class="st0" d="M525.7,50.7c1.2-1.4,1.8-3.2,1.8-5c0-2.3-0.9-3.5-2.5-3.5c-1.3,0-2.2,0.8-2.4,2.3
			c-0.1,0.7-0.2,1.5-0.3,2.3c-0.2,1.3-0.8,2.5-1.7,3.5c-0.9,0.8-2.1,1.3-3.4,1.2c-1.4,0.1-2.8-0.5-3.8-1.5c-1-1.2-1.5-2.7-1.5-4.2
			c0-2.1,0.6-4.1,1.9-5.8l2.3,1.5c-0.9,1.3-1.4,2.8-1.4,4.4c0,0.7,0.2,1.5,0.6,2.1c0.5,0.6,1.2,0.9,2,0.9c0.5,0,1-0.2,1.4-0.6
			c0.5-0.5,0.8-1.2,0.9-1.9c0.1-0.5,0.2-1.1,0.3-2c0.1-1.4,0.8-2.7,1.8-3.7c1-0.8,2.2-1.2,3.4-1.2c3.5,0.1,5.2,2.2,5.3,6.2
			c0.1,2.5-0.8,4.9-2.5,6.7L525.7,50.7z"/>
		<path id="Fill-11" class="st0" d="M170.9,70.5c-0.8,4.1-2.9,7.9-6.1,10.7c-3.1,2.5-6.9,3.8-10.8,3.7c-6.3,0-12.1-3.5-15.1-9
			c-0.4-0.8-0.7-1.5-1-2.2c-0.3-0.9-0.5-1.8-0.7-2.7c-0.4-3.8-0.6-7.7-0.5-11.6c-0.1-3.9,0.1-7.8,0.5-11.7c0.3-1.7,0.8-3.3,1.6-4.8
			c1.3-2.5,3.3-4.6,5.6-6.2c6.5-4.2,15-3.6,20.9,1.5c2.9,2.8,4.9,6.5,5.6,10.5h-7.7c-0.6-2-1.7-3.8-3.2-5.2
			c-1.7-1.3-3.7-2.1-5.9-2.1c-1.5,0-3.1,0.4-4.4,1.1c-1.2,0.6-2.2,1.5-3,2.6c-1,1.2-1.7,2.6-1.9,4.2c-0.5,3.3-0.6,6.7-0.5,10.1
			c-0.1,3.3,0.1,6.7,0.5,10c0.2,1.6,0.9,3,1.9,4.2c0.8,1.1,1.8,1.9,3,2.5c1.3,0.8,2.9,1.2,4.4,1.1c4.1,0,7.2-2.3,9.2-6.8H170.9z"/>
		<path id="Fill-13" class="st0" d="M199.9,66.6l-7-21.9h-0.1l-7,21.9H199.9z M201.9,73.3h-18.3L180,84.5h-7.7l17.5-50h6.1l17.5,50
			h-7.7L201.9,73.3z"/>
		<polygon id="Fill-15" class="st0" points="219.9,34.5 226.7,34.5 248.5,70 248.7,70 248.7,34.5 256,34.5 256,84.5 249.1,84.5 
			227.3,49 227.1,49 227.1,84.5 219.9,84.5 		"/>
		<path id="Fill-17" class="st0" d="M290.2,66.6l-7-21.9h-0.1l-7,21.9H290.2z M292.3,73.3H274l-3.7,11.2h-7.7l17.5-50h6.1l17.5,50
			H296L292.3,73.3z"/>
		<path id="Fill-19" class="st0" d="M317.5,77.3h8.7c4.1,0,7.1-1.5,8.9-4.4c0.9-1.2,1.4-2.6,1.6-4.1c0.2-3,0.3-6.1,0.3-9.1
			c0-4.4-0.1-7.5-0.3-9.3c-0.2-1.7-0.8-3.3-1.9-4.6c-1.9-2.8-5.2-4.5-8.6-4.2h-8.7L317.5,77.3z M310.2,34.5h16.9
			c6.1-0.2,11.8,3.1,14.7,8.4c1.1,1.8,1.9,3.8,2.2,5.9c0.3,3.5,0.4,7.1,0.4,10.7c0.1,3.8-0.1,7.5-0.6,11.2c-0.2,1-0.4,2-0.8,2.9
			c-0.4,0.9-0.9,1.7-1.4,2.6c-1.5,2.4-3.5,4.4-5.9,5.8c-2.7,1.7-5.9,2.6-9.1,2.5h-16.4V34.5z"/>
		<polygon id="Fill-21" class="st0" points="354.2,84.5 361.5,84.5 361.5,34.5 354.2,34.5 		"/>
		<path id="Fill-23" class="st0" d="M394.9,66.6l-7-21.9h-0.1l-7,21.9H394.9z M396.9,73.3h-18.3L375,84.5h-7.7l17.5-50h6.1l17.5,50
			h-7.7L396.9,73.3z"/>
		<polygon id="Fill-24" class="st0" points="414.9,34.5 421.7,34.5 443.5,70 443.7,70 443.7,34.5 451,34.5 451,84.5 444.1,84.5 
			422.3,49 422.1,49 422.1,84.5 414.9,84.5 		"/>
		<polygon id="Fill-25" class="st0" points="136.8,154.9 144.1,154.9 144.1,104.9 136.8,104.9 		"/>
		<polygon id="Fill-26" class="st0" points="154.8,104.9 161.6,104.9 183.5,140.4 183.6,140.4 183.6,104.9 190.9,104.9 190.9,154.9 
			184,154.9 162.2,119.4 162.1,119.4 162.1,154.9 154.8,154.9 		"/>
		<polygon id="Fill-27" class="st0" points="202.6,104.9 209.4,104.9 231.2,140.4 231.4,140.4 231.4,104.9 238.7,104.9 238.7,154.9 
			231.8,154.9 210,119.4 209.9,119.4 209.9,154.9 202.6,154.9 		"/>
		<path id="Fill-28" class="st0" d="M256,129.9c-0.1,3.3,0.1,6.7,0.5,10c0.2,1.6,0.9,3,1.9,4.2c0.8,1.1,1.8,1.9,3,2.5
			c1.3,0.8,2.9,1.2,4.4,1.1c1.6,0,3.2-0.3,4.5-1.1c1.2-0.6,2.2-1.5,2.9-2.5c1-1.2,1.7-2.7,2-4.2c0.4-3.3,0.6-6.7,0.5-10
			c0.1-3.4-0.1-6.7-0.5-10.1c-0.3-1.5-1-3-2-4.2c-0.8-1.1-1.8-1.9-2.9-2.6c-1.4-0.7-3-1.1-4.5-1.1c-1.5,0-3.1,0.4-4.4,1.1
			c-1.2,0.6-2.2,1.5-3,2.6c-1,1.2-1.6,2.6-1.9,4.2C256.1,123.2,255.9,126.5,256,129.9 M248.7,129.9c-0.1-3.9,0.1-7.8,0.5-11.7
			c0.3-1.7,0.8-3.3,1.6-4.8c1.3-2.5,3.3-4.6,5.6-6.2c2.8-1.9,6.1-2.9,9.5-2.8c6.3-0.1,12.2,3.4,15.1,9c0.9,1.4,1.5,3.1,1.7,4.8
			c0.4,3.9,0.5,7.8,0.4,11.6c0.1,3.9-0.1,7.7-0.4,11.6c-0.2,1.7-0.8,3.4-1.7,4.8c-1.3,2.5-3.2,4.6-5.5,6.1c-2.8,1.9-6.2,2.9-9.6,2.9
			c-6.3,0-12.1-3.5-15.1-9c-0.4-0.8-0.7-1.5-1-2.2c-0.3-0.9-0.5-1.8-0.7-2.7C248.7,137.6,248.6,133.8,248.7,129.9"/>
		<polygon id="Fill-29" class="st0" points="286.2,104.9 293.9,104.9 304.8,143 305,143 315.9,104.9 323.6,104.9 307.7,154.9 
			302.1,154.9 		"/>
		<path id="Fill-30" class="st0" d="M348.8,137l-7-21.9h-0.1l-7,21.9H348.8z M350.9,143.7h-18.3l-3.7,11.2h-7.7l17.5-50h6.1l17.5,50
			h-7.7L350.9,143.7z"/>
		<polygon id="Fill-31" class="st0" points="371.8,111.6 358.6,111.6 358.6,104.9 392.3,104.9 392.3,111.6 379.1,111.6 379.1,154.9 
			371.8,154.9 		"/>
		<polygon id="Fill-32" class="st0" points="398.5,154.9 405.8,154.9 405.8,104.9 398.5,104.9 		"/>
		<path id="Fill-33" class="st0" d="M422.2,129.9c-0.1,3.3,0.1,6.7,0.5,10c0.2,1.6,0.9,3,1.9,4.2c0.8,1.1,1.8,1.9,3,2.5
			c1.3,0.8,2.9,1.2,4.4,1.1c1.6,0,3.2-0.3,4.5-1.1c1.2-0.6,2.2-1.5,2.9-2.5c1-1.2,1.7-2.7,2-4.2c0.4-3.3,0.6-6.7,0.5-10
			c0.1-3.4-0.1-6.7-0.5-10.1c-0.3-1.5-1-3-2-4.2c-0.8-1.1-1.8-1.9-2.9-2.6c-1.4-0.7-3-1.1-4.5-1.1c-1.5,0-3.1,0.4-4.4,1.1
			c-1.2,0.6-2.2,1.5-3,2.6c-1,1.2-1.6,2.6-1.9,4.2C422.3,123.2,422.1,126.5,422.2,129.9 M414.9,129.9c-0.1-3.9,0.1-7.8,0.5-11.7
			c0.3-1.7,0.8-3.3,1.6-4.8c1.3-2.5,3.3-4.6,5.6-6.2c2.8-1.9,6.1-2.9,9.5-2.8c6.3-0.1,12.2,3.4,15.1,9c0.9,1.4,1.5,3.1,1.7,4.8
			c0.4,3.9,0.5,7.8,0.4,11.6c0.1,3.9-0.1,7.7-0.4,11.6c-0.2,1.7-0.8,3.4-1.7,4.8c-1.3,2.5-3.2,4.6-5.5,6.1c-2.8,1.9-6.2,2.9-9.6,2.9
			c-6.3,0-12.1-3.5-15.1-9c-0.4-0.8-0.7-1.5-1-2.2c-0.3-0.9-0.5-1.8-0.7-2.7C415,137.6,414.8,133.8,414.9,129.9"/>
		<polygon id="Fill-34" class="st0" points="459.2,104.9 466,104.9 487.9,140.4 488,140.4 488,104.9 495.3,104.9 495.3,154.9 
			488.4,154.9 466.6,119.4 466.5,119.4 466.5,154.9 459.2,154.9 		"/>
	</g>
</g>
</svg>
