<?xml version="1.0" encoding="utf-8"?>
<!-- Generator: Adobe Illustrator 21.0.2, SVG Export Plug-In . SVG Version: 6.00 Build 0)  -->
<svg version="1.1" id="Layer_1" xmlns="http://www.w3.org/2000/svg" xmlns:xlink="http://www.w3.org/1999/xlink" x="0px" y="0px"
	 viewBox="0 0 434.5 347.9" style="enable-background:new 0 0 434.5 347.9;" xml:space="preserve">
<g>
	<polygon points="203.5,159.4 166.6,159.4 166.6,117 133.7,117 133.7,231.2 166.6,231.2 166.6,186.2 203.5,186.2 203.5,231.2 
		236.4,231.2 236.4,117 203.5,117 	"/>
	<path d="M261.9,108.5c-9.4,0-17,7.6-17,17s7.6,17,17,17c9.4,0,17-7.6,17-17S271.3,108.5,261.9,108.5z"/>
	<rect x="246.4" y="152.1" width="30.9" height="79.1"/>
	<path d="M305.3,195.6c-10.6,0-19.2,8.6-19.2,19.2c0,10.6,8.6,19.2,19.2,19.2s19.2-8.6,19.2-19.2
		C324.5,204.3,315.9,195.6,305.3,195.6z"/>
</g>
</svg>
