<?xml version="1.0" encoding="UTF-8"?>
<svg width="1281px" height="59px" viewBox="0 0 1281 59" version="1.1" xmlns="http://www.w3.org/2000/svg" xmlns:xlink="http://www.w3.org/1999/xlink">
    <!-- Generator: Sketch 49.3 (51167) - http://www.bohemiancoding.com/sketch -->
    <title>Top Nav Clear 1</title>
    <desc>Created with Sketch.</desc>
    <defs></defs>
    <g id="Our-Story" stroke="none" stroke-width="1" fill="none" fill-rule="evenodd">
        <g transform="translate(-79.000000, -36.000000)" id="Nav/Desktop/Top-Nav/Clear">
            <g>
                <g id="download-1-copy-2" stroke-width="1" fill-rule="evenodd" transform="translate(79.000000, 36.000000)" fill="#FFFFFF">
                    <path d="M9.0542026,33.8899455 C14.1613715,32.9841655 20.1136115,29.1074275 21.2893626,24.1075223 C21.3261048,23.9988287 21.2893626,23.9263663 21.2158781,23.8539039 C21.1423937,23.7814415 21.032167,23.7814415 20.9586826,23.7814415 C18.8276337,24.3611407 17.1742337,24.7596838 15.5575759,25.1219958 C14.7125048,25.3031518 13.9041759,25.520539 12.9856204,25.7379262 C12.8753937,25.7741574 12.765167,25.8828509 12.8019093,25.9915445 C12.9121359,28.3465723 10.6708604,30.1581322 8.42958483,30.5566754 C7.32731816,30.7378313 6.33527816,30.5566754 5.63717594,30.0494386 C4.53490928,29.1798899 4.31445594,27.4770236 5.04930039,25.6654638 C6.11482483,23.0930488 8.79700705,21.0641018 12.5079715,19.8684723 C13.8674337,19.4336979 15.410607,19.0713859 17.064007,18.7815364 C20.4075493,18.2018372 24.2654826,17.9119876 29.2256826,17.8757564 C33.1203581,17.8395252 37.1620026,17.98445 41.0566781,18.0931436 C44.841127,18.2018372 48.3683803,18.346762 51.7119225,18.3105308 C54.6145581,18.2742996 57.0028025,18.165606 58.9868825,17.9119876 C59.060367,17.9119876 59.0971092,17.8757564 59.1338514,17.8395252 C60.4565714,16.7888205 63.7633714,13.8540936 66.9232025,10.4483611 C66.996687,10.3758987 67.0334292,10.2309739 66.9599447,10.1222803 C66.8864603,10.0135867 66.7762336,9.9773555 66.666007,10.0135867 C64.9023803,10.5570547 62.9183003,10.991829 60.6402825,11.3903722 C54.0266825,12.5497705 46.3108159,12.9483136 38.1173003,13.3468568 C36.0964781,13.4555504 33.9654292,13.564244 31.9078648,13.6729376 C27.976447,13.8903248 23.5306381,14.1801743 19.1950559,14.9410295 C14.3818248,15.774347 10.4871493,17.0786701 7.25383372,18.9626923 C4.13074483,20.7742522 0.530007062,24.2886783 0.0523581738,27.8031044 C-0.168095159,29.4697394 0.309553729,30.9552185 1.44856262,32.0783856 C2.73454039,33.3464775 4.71862039,34.0348703 7.07012261,33.9986391 C7.65799816,33.9986391 8.28261594,33.9261767 8.90723372,33.8537143 L9.0542026,33.8899455 Z" id="Shape" fill-rule="nonzero"></path>
                    <path d="M30.9269103,20.1102041 C30.8903654,20.0367347 30.7807309,20 30.7076412,20 C30.7076412,20 30.6710963,20 30.6710963,20 L24.7142857,21.6163265 C24.6046512,21.6530612 24.4950166,21.7632653 24.4950166,21.8734694 C24.4950166,21.9836735 24.5681063,22.1306122 24.7142857,22.1306122 C24.7508306,22.1306122 24.7873754,22.1673469 24.8239203,22.2040816 C24.89701,22.277551 24.9335548,22.3877551 24.9700997,22.4244898 C25.1893688,22.6816327 25.2990033,22.8653061 25.0066445,23.8571429 L25.0066445,23.9306122 C23.3255814,27.6040816 22.0099668,30.1755102 20.5481728,33.1510204 L20.5481728,33.1877551 C19.6345515,35.0244898 18.5016611,37.2653061 17.1495017,40.0938776 C16.089701,42.2612245 15.5049834,43.3265306 13.7873754,46.4122449 L13.3853821,47.0734694 C10.9734219,51.444898 10.1328904,53.3183673 9,55.8897959 C9,55.9265306 9,55.9632653 9.03654485,56 C9.03654485,56 9.0730897,56 9.0730897,56 C9.10963455,56 9.10963455,56 9.1461794,55.9632653 C12.179402,53.0244898 16.1993355,51.1510204 20.4019934,50.7836735 C20.4385382,50.7836735 20.4750831,50.7469388 20.4750831,50.7469388 C20.4750831,50.7102041 20.4750831,50.6734694 20.4750831,50.6734694 C18.7940199,48.3591837 20.1461794,43.7673469 21.9734219,40.2040816 C22.4119601,39.322449 22.8139535,38.5877551 23.0332226,38.0734694 L31,20.4408163 C31,20.2938776 30.9634551,20.1836735 30.9269103,20.1102041 Z" id="Shape" fill-rule="nonzero"></path>
                    <path d="M118.398816,0.929426591 C117.847382,0.297416509 117.038613,0 116.00927,0 C115.678409,0 115.310787,0.0371770636 114.906402,0.111531191 C109.759687,1.18966604 106.634895,6.05986137 104.061538,11.1531191 L103.693915,11.1531191 C103.252768,11.1531191 102.811621,11.115942 102.333712,11.115942 C100.936746,11.0415879 99.5765428,11.0415879 98.2531017,11.0415879 C94.9812612,11.078765 92.1505677,11.3018273 89.5404478,11.7851292 C84.5775437,12.6773787 79.9454998,15.2425961 77.4456666,17.1758034 C77.3353799,17.2501575 77.2986176,17.3988658 77.3721421,17.510397 C77.4456666,17.6219282 77.5559534,17.6962823 77.7030024,17.6219282 C78.364723,17.3616887 78.9896812,17.2129805 79.6514018,17.1014493 C80.9748429,16.8783869 84.1363966,17.3616887 84.7981172,19.2205419 C84.8348794,19.294896 84.9084039,19.3692502 84.9819284,19.4064272 C85.0922152,19.4436043 85.1657397,19.4064272 85.2392642,19.3320731 C87.0406146,17.2873346 90.6065531,14.9080025 93.4740088,14.3875236 C95.5694572,14.015753 97.9222414,13.8298677 100.201501,13.8298677 C100.826459,13.8298677 101.451418,13.8298677 102.076376,13.8298677 C102.296949,13.8298677 102.480761,13.8298677 102.701334,13.8298677 C101.81904,15.8746062 101.047033,17.5847511 100.311788,19.2205419 C99.4294938,17.8078135 98.0692904,17.0642722 96.3782268,17.0642722 C96.0473665,17.0642722 95.7165062,17.1014493 95.3488837,17.1758034 C91.0477001,17.9565217 86.4524186,23.0869565 85.0922152,28.5891619 C84.9819284,28.9609326 84.9084039,29.3698803 84.8716417,29.778828 C83.7320119,32.0094518 79.8352131,35.7271582 76.5633726,36.3219912 C75.460505,36.5078765 74.5046864,36.3963453 73.7694414,35.9873976 C73.2180076,35.652804 72.850385,34.7605545 72.6665738,34.0170132 C77.5191911,32.9017013 81.0483674,29.5557656 82.739431,26.8046629 C83.8790609,24.9829868 83.7687741,23.9048519 83.4746761,22.6408318 C83.1070536,20.9306868 81.857137,20.0384373 79.9454998,20.0384373 C79.6146395,20.0384373 79.247017,20.0756144 78.8426322,20.1499685 C76.5266103,20.4845621 74.1003016,21.8972905 72.0416155,24.1279143 C70.1299783,26.1726528 68.7330127,28.7378702 68.1448167,31.1543793 C67.7771942,32.7529931 67.7036697,34.1657215 67.9242432,35.4297417 C66.3802286,37.0655325 63.6230596,39.147448 60.9761774,39.6307498 C59.8733098,39.8166352 58.9174913,39.705104 58.1822462,39.2961563 C57.6308124,38.9615627 57.2999521,38.4782609 57.1161409,37.8090737 C61.9687582,36.6937618 65.4979345,33.3478261 67.1889981,30.5967234 C68.2918657,28.8122243 68.769775,27.0277253 68.5124392,25.8008822 C68.1448167,24.0907372 66.8949001,23.1984877 64.983263,23.1984877 C64.6524027,23.1984877 64.2847802,23.2356648 63.8803954,23.3100189 C63.8068709,23.3100189 63.7333464,23.347196 63.6598219,23.347196 C61.7114225,23.6817895 59.6527363,24.8714556 57.7043369,26.6931317 C56.4544203,27.6225583 55.1309792,28.5148078 53.6237269,29.4442344 C53.5869646,27.5482042 52.9987686,26.5816005 52.484097,26.0982987 C51.9326632,25.5778198 51.1974182,25.3919345 50.4254109,25.5406427 C49.2122565,25.7637051 48.0726267,26.7674858 47.5947174,28.068683 C47.2638571,28.9609326 46.9697591,30.8197858 48.550536,33.0504096 C45.8301293,38.1808444 41.0877987,42.4562067 39.5805463,43.3856333 C39.5070218,43.4228103 39.4334973,43.4599874 39.3599728,43.4599874 C39.102637,43.4971645 38.8453013,43.3856333 38.6982522,43.1625709 C38.514441,42.9023314 38.514441,42.5677379 38.66149,42.1959672 L39.2129238,40.89477 C41.0510364,36.4706994 42.9259113,31.9350977 44.9845975,26.9905482 C45.0213597,26.9161941 45.0213597,26.8046629 44.9478352,26.7303088 C44.8743107,26.6559546 44.8007862,26.6187776 44.6904994,26.6187776 L38.9188258,27.8827977 C38.8820635,27.8827977 38.8820635,27.9199748 38.8453013,27.9199748 C38.8453013,27.9571519 38.8453013,27.9571519 38.8453013,27.9943289 C38.9923503,28.2917454 39.0291125,29.4814115 38.8820635,30.0018904 C38.2938675,31.4146188 37.6689092,32.8645243 37.0807131,34.3144297 C36.0146078,36.8424701 34.9485025,39.4076875 33.8823971,41.9729049 C32.264858,43.0882168 31.6031375,43.5343415 29.8017871,44.5752993 C29.6915003,44.6496534 29.5812136,44.6868305 29.5076891,44.6868305 C29.4709268,44.6868305 29.4709268,44.6868305 29.4341646,44.6868305 C29.3606401,44.6868305 29.2871155,44.6496534 29.2503533,44.6124764 C29.1768288,44.5009452 29.1768288,44.2778828 29.3606401,43.8689351 L29.9488361,42.4562067 C31.8604732,37.8090737 33.6985859,33.4221802 35.6837475,28.6635161 C35.7205098,28.5891619 35.7205098,28.4776307 35.6469853,28.4032766 C35.5734608,28.3289225 35.4999363,28.2917454 35.3896495,28.2917454 L28.9930175,29.4442344 C28.8827308,29.4814115 28.772444,29.5929427 28.772444,29.7044739 C28.772444,29.816005 28.8459685,29.9275362 28.9562553,29.9647133 C29.2503533,30.0390674 29.4341646,30.1877757 29.5812136,30.4108381 C29.7282626,30.7454316 29.7282626,31.1915564 29.5444513,31.6748582 C28.8827308,33.273472 28.2210102,34.8720857 27.5592897,36.4335224 L27.4122407,36.8424701 C26.4196598,39.1846251 25.427079,41.6011342 24.4344982,44.0176434 C23.7727776,45.8021424 23.8830644,47.4007561 24.6550717,48.4045369 C25.2432677,49.1480781 26.1990863,49.4826717 27.2284294,49.2967864 C27.7798632,49.1852552 28.3680592,48.9621928 28.919493,48.5904222 C30.5737944,47.4751103 32.1913335,46.2854442 33.5515369,45.1701323 C33.7353481,45.8021424 34.0662084,46.3226213 34.5808799,46.731569 C35.316125,47.289225 36.3454681,47.5122873 37.4115734,47.326402 C37.8894827,47.2520479 38.4041542,47.0661626 38.8820635,46.8431002 C41.4554212,45.9136736 47.8520532,40.5973535 52.7414328,33.4221802 C52.8884818,33.310649 53.0355308,33.1991178 53.2193421,33.0875866 C52.9252441,33.7567738 52.7414328,34.3887839 52.5943838,34.9836169 C51.895901,37.957782 52.2267613,40.3371141 53.5869646,41.8613737 C54.5795454,42.9766856 56.0500355,43.5343415 57.8881482,43.5343415 C58.4028197,43.5343415 58.9542535,43.4599874 59.5056873,43.3856333 C59.9835966,43.3112791 60.4615059,43.199748 60.9394152,43.0510397 C63.8436331,42.1587902 67.0051869,40.0396975 68.8432995,37.7718967 C68.916824,37.8834279 69.0271108,37.994959 69.1006353,38.1064902 C70.3137896,39.4820416 72.1886645,40.2627599 74.0635394,40.2627599 C74.4311619,40.2627599 74.7987844,40.2255829 75.166407,40.1512287 C75.6443163,40.0768746 76.1222255,39.9653434 76.6001348,39.8166352 C79.7984508,38.8128544 83.1070536,35.8758664 84.7981172,33.3850032 C85.0186907,34.5374921 85.4598377,35.4669187 86.1215583,36.21046 C86.9670901,37.1770636 88.1802444,37.6603655 89.5404478,37.6603655 C89.8713081,37.6603655 90.2021683,37.6231884 90.5330286,37.5488343 C91.9667565,37.2885948 93.5107711,36.5078765 94.9812612,35.3182105 C95.4959327,35.9873976 96.26794,36.3591682 97.1869964,36.3219912 C97.4075699,36.3219912 97.5913811,36.2848141 97.8119547,36.2476371 C98.4001507,36.1361059 99.025109,35.9130435 99.613305,35.5412728 C100.01769,35.2810334 100.34855,35.057971 100.642648,34.8720857 C101.855802,34.0913674 102.296949,33.8311279 103.068957,33.0875866 C103.620391,32.7901701 104.171824,32.8645243 104.502685,33.273472 C104.907069,33.7567738 104.943832,34.5746692 104.649734,35.5040958 C103.546866,39.5935728 98.9515845,41.1550095 90.8638889,42.6049149 C90.3492173,42.6792691 89.8345458,42.7908003 89.3566365,42.8651544 C83.6217251,43.794581 77.5559534,44.389414 71.7107552,44.984247 L71.673993,44.984247 C68.5859637,45.2816635 65.3876477,45.6162571 62.2628563,45.9880277 C55.3515527,46.7687461 48.1829135,47.5866415 42.153904,48.6647763 C36.5660416,49.668557 32.411907,50.5608066 29.066542,51.8620038 C29.0297798,51.8620038 28.9930175,51.8991808 28.9930175,51.9363579 C28.9930175,51.973535 29.0297798,52.010712 29.066542,52.010712 C32.6692428,53.3490863 35.7940343,55.7655955 37.9997694,58.9628229 C37.9997694,59 38.0365317,59 38.073294,59 C38.073294,59 38.073294,59 38.073294,59 C38.1100562,59 38.1100562,59 38.1468185,58.9628229 C42.2274285,54.6874606 61.8217092,50.821046 70.0564538,49.3711405 C72.1886645,48.9993699 74.3208752,48.6275992 76.7104216,48.2186515 L76.9309951,48.1814745 C78.9161567,47.8468809 80.9013184,47.5122873 82.7761933,47.1776938 C87.9964332,46.2482672 91.3050359,45.57908 93.9151559,44.9098929 C97.1869964,44.0919975 100.569124,43.0882168 103.28953,41.1921865 C103.363055,41.1550095 109.575876,36.5822306 107.223091,31.7492124 C106.781944,30.8197858 105.605552,30.4480151 105.274692,30.3364839 C104.76002,30.1877757 104.135062,30.1877757 103.473342,30.2993069 C102.002851,30.5595463 101.304369,30.968494 100.642648,31.563327 C100.385312,31.7120353 100.091214,31.7120353 100.01769,31.6376812 C99.9441653,31.563327 99.9441653,31.3030876 100.164739,30.8941399 C101.083795,28.8494014 102.039614,26.7674858 102.95867,24.7227473 L103.216006,24.1279143 C104.686496,20.8935098 106.37756,17.2129805 107.995099,13.6068053 C112.222758,11.9710145 117.847382,7.39823566 118.729676,3.94076875 C119.207586,2.71392565 119.023774,1.6357908 118.398816,0.929426591 Z M115.126976,3.60617517 C114.796115,5.87397606 111.891897,8.81096408 109.281778,10.2980466 C110.494932,7.73282924 113.252101,3.16005041 114.575542,2.78827977 L114.612304,2.78827977 C114.649066,2.78827977 114.685829,2.78827977 114.722591,2.78827977 C114.832878,2.78827977 114.906402,2.82545684 114.979927,2.89981096 C115.126976,2.97416509 115.2005,3.2715816 115.126976,3.60617517 Z M98.1428149,24.1650914 L98.0692904,24.3509767 C97.0767096,26.5444234 96.0473665,28.7750473 95.0915479,30.8941399 C95.0915479,30.931317 95.0547857,30.968494 95.0547857,31.0056711 C93.9886804,32.2696912 92.8122883,33.0504096 91.8197075,33.2362949 C91.0844624,33.3850032 90.4962664,33.1991178 90.0918816,32.715816 C89.3566365,31.8235665 89.3566365,30.0762445 90.0183571,28.031506 C91.1212247,24.6855703 93.8416314,21.7114052 96.1944155,21.3024575 C96.3414645,21.2652804 96.4885136,21.2652804 96.6355626,21.2652804 C97.0767096,21.2652804 97.4075699,21.3768116 97.6649056,21.637051 C98.1428149,22.0831758 98.2898639,22.9754253 98.1428149,24.1650914 Z M73.1812453,30.0018904 C73.8797281,27.5853812 75.7913653,24.8714556 78.1809117,24.2394455 C78.2911984,24.2022684 78.4382475,24.2022684 78.5485342,24.2022684 C78.5852965,24.2022684 78.5852965,24.2022684 78.6220587,24.2022684 C78.8793945,24.2022684 79.0264435,24.3509767 79.1367303,24.4625079 C79.247017,24.6112161 79.247017,24.7971014 79.247017,24.8714556 C78.4014852,27.8084436 74.9825957,29.5929427 73.1812453,30.0018904 Z M57.3734766,34.7233774 C57.7778614,33.4593573 58.6601555,31.7492124 59.6894986,30.3364839 C60.9761774,28.5519849 62.2996185,27.436673 63.4024861,27.1392565 C63.5127728,27.1020794 63.6598219,27.1020794 63.7701086,27.1020794 C63.8068709,27.1020794 63.8068709,27.1020794 63.8436331,27.1020794 C64.0274444,27.1020794 64.1744934,27.1764335 64.2847802,27.2879647 C64.3950669,27.436673 64.4685914,27.6597353 64.4318292,27.8084436 C64.3215424,30.5967234 59.4321628,34.0913674 57.3734766,34.7233774 Z" id="Shape" fill-rule="nonzero"></path>
                </g>
                <text id="Products-Copy-2" font-family="FuturaStd-Bold, Futura Std" font-size="16" font-weight="bold" fill="#FFFFFF">
                    <tspan x="232" y="85">Products</tspan>
                </text>
                <text id="Learn-Copy-2" font-family="FuturaStd-Bold, Futura Std" font-size="16" font-weight="bold" fill="#FFFFFF">
                    <tspan x="334" y="85">Learn</tspan>
                </text>
                <text id="Our-Story-Copy-2" font-family="FuturaStd-Bold, Futura Std" font-size="16" font-weight="bold" fill="#FFFFFF">
                    <tspan x="411" y="85">Our Story</tspan>
                </text>
                <text id="Contact-us-Copy-2" font-family="FuturaStd-Medium, Futura Std" font-size="12" font-weight="400" letter-spacing="1" fill="#FFFFFF">
                    <tspan x="1186" y="49">CONTACT U</tspan>
                    <tspan x="1260.136" y="49">S</tspan>
                </text>
                <text id="Français-Copy-2" font-family="FuturaStd-Medium, Futura Std" font-size="12" font-weight="400" letter-spacing="1" fill="#FFFFFF">
                    <tspan x="1297" y="49">FRANÇAIS</tspan>
                </text>
                <text id="Looking-for-Medical?-Copy-2" font-family="FuturaStd-Bold, Futura Std" font-size="16" font-weight="bold" fill="#FFFFFF">
                    <tspan x="883" y="85">Looking for Medical?</tspan>
                </text>
                <text id="Subscribe-to-Tweed-U-Copy-2" font-family="FuturaStd-Bold, Futura Std" font-size="16" font-weight="bold" fill="#FFFFFF">
                    <tspan x="1122" y="85">Subscribe to Tweed Updates</tspan>
                </text>
                <path d="M1090.5,69.5 L1090.5,85.5227155" id="Line-Copy-2" stroke="#FAFAFA" stroke-width="1.5" stroke-linecap="square"></path>
            </g>
        </g>
    </g>
</svg>